<svg xmlns="http://www.w3.org/2000/svg" width="270" height="65" viewBox="0 0 270 65">
    <g fill="none" fill-rule="evenodd">
        <g>
            <g>
                <g transform="translate(-60 -46) translate(60 46)">
                    <rect width="53.972" height="42.95" x="180.39" fill="#EC1C24" rx="11.362"/>
                    <path fill="#FFF" fill-rule="nonzero" d="M195.422 33.613V10.271h-4.668v23.342h4.668zm14.473 0v-9.57h12.138c4.201 0 7.002-2.755 7.002-6.77 0-4.201-2.8-7.002-7.002-7.002h-16.807v23.342h4.669zm12.138-13.772h-12.138v-5.369h12.138c1.4 0 2.334.934 2.334 2.335v.7c0 1.4-.934 2.334-2.334 2.334zM8.08 33.074v-9.465h12.004c4.156 0 6.926-2.724 6.926-6.695 0-4.156-2.77-6.926-6.926-6.926H3.463v23.086H8.08zm12.004-13.62H8.08v-5.31h12.004c1.386 0 2.309.923 2.309 2.308v.693c0 1.385-.923 2.308-2.309 2.308zm20.085 13.62v-9.465h7.85l5.863 9.465h5.217l-5.217-8.403c-.185-.324-.508-.74-.831-1.109 3.647-.369 6.048-2.954 6.048-6.648 0-4.156-2.77-6.926-6.926-6.926H35.552v23.086h4.617zm12.004-13.62H40.17v-5.31h12.004c1.386 0 2.309.923 2.309 2.308v.693c0 1.385-.923 2.308-2.309 2.308zM78.03 33.534c6.926 0 12.005-5.078 12.005-12.004 0-6.926-5.079-12.005-12.005-12.005-6.925 0-12.004 5.08-12.004 12.005 0 6.926 5.079 12.004 12.004 12.004zm0-4.386c-4.155 0-7.156-3.232-7.156-7.618s3-7.618 7.156-7.618 7.157 3.232 7.157 7.618-3.001 7.618-7.157 7.618zm30.935 3.925v-18.93h9.234V9.988H95.113v4.156h9.234v18.93h4.617zm26.318.461c6.925 0 12.004-5.078 12.004-12.004 0-6.926-5.079-12.005-12.004-12.005-6.926 0-12.005 5.08-12.005 12.005 0 6.926 5.079 12.004 12.005 12.004zm0-4.386c-4.156 0-7.157-3.232-7.157-7.618s3.001-7.618 7.157-7.618c4.155 0 7.156 3.232 7.156 7.618s-3 7.618-7.156 7.618zm30.934 3.925v-18.93h9.235V9.988h-23.086v4.156h9.234v18.93h4.617zM263.277 33.074L263.277 28.918 245.271 28.918 245.271 23.609 258.66 23.609 258.66 19.453 245.271 19.453 245.271 14.144 263.277 14.144 263.277 9.988 240.653 9.988 240.653 33.074z"/>
                </g>
                <path fill="#FFF" fill-rule="nonzero" d="M102.386 60.45v-7.457h.043s.213.682.596 1.193l1.492 2.003h2.13l1.491-2.003c.384-.511.597-1.193.597-1.193h.042v7.457h2.13V49.797h-1.917l-3.323 4.474h-.15l-3.344-4.474h-1.917V60.45h2.13zm24.82 0v-1.918h-8.309v-2.45h6.178v-1.917h-6.178v-2.45h8.309v-1.918h-10.44V60.45h10.44zm10.865 0c3.196 0 5.54-2.259 5.54-5.326 0-3.09-2.344-5.327-5.54-5.327h-5.326V60.45h5.326zm0-1.918h-3.195v-6.817h3.195c1.918 0 3.302 1.449 3.302 3.409 0 1.98-1.384 3.408-3.302 3.408zm12.996 1.918V49.797h-2.13V60.45h2.13zm7.158 0l.874-2.13h5.624l.874 2.13h2.3l-4.367-10.653h-3.196l-4.367 10.653h2.258zm5.71-4.048h-4.048l1.917-4.687h.214l1.917 4.687z" transform="translate(-60 -46) translate(60 46)"/>
            </g>
        </g>
    </g>
</svg>
