<svg xmlns="http://www.w3.org/2000/svg" width="42" height="42">
  <g opacity=".296" transform="translate(-585 -751)">
    <path fill="none" d="M585 751h42v42h-42z"/>
    <path fill="#a7a7a7" fill-rule="nonzero" d="M613 768.5h-14c-.963 0-1.75.788-1.75 1.75s.787 1.75 1.75 1.75h14c.962 0 1.75-.788 1.75-1.75s-.788-1.75-1.75-1.75zm5.25-12.25h-1.75v-1.75c0-.962-.788-1.75-1.75-1.75s-1.75.788-1.75 1.75v1.75h-14v-1.75c0-.962-.787-1.75-1.75-1.75s-1.75.788-1.75 1.75v1.75h-1.75a3.499 3.499 0 00-3.5 3.5v24.5c0 1.925 1.558 3.5 3.5 3.5h24.5a3.51 3.51 0 003.5-3.5v-24.5a3.51 3.51 0 00-3.5-3.5zm-1.75 28h-21c-.963 0-1.75-.788-1.75-1.75V765h24.5v17.5c0 .962-.788 1.75-1.75 1.75zm-8.75-8.75H599c-.963 0-1.75.788-1.75 1.75s.787 1.75 1.75 1.75h8.75c.962 0 1.75-.788 1.75-1.75s-.788-1.75-1.75-1.75z"/>
  </g>
</svg>