<svg xmlns="http://www.w3.org/2000/svg" width="50" height="50">
  <g opacity=".296" transform="translate(-890 -743)">
    <path fill="none" d="M890 743h50v50h-50z"/>
    <path fill="#a7a7a7" fill-rule="nonzero" d="M904.583 763.833h-4.166v-4.166a2.09 2.09 0 00-2.084-2.084 2.09 2.09 0 00-2.083 2.084v4.166h-4.167a2.09 2.09 0 00-2.083 2.084 2.09 2.09 0 002.083 2.083h4.167v4.167a2.09 2.09 0 002.083 2.083 2.09 2.09 0 002.084-2.083V768h4.166a2.09 2.09 0 002.084-2.083 2.09 2.09 0 00-2.084-2.084zm22.917 2.084a6.224 6.224 0 006.23-6.25c0-3.459-2.772-6.25-6.23-6.25-.667 0-1.313.104-1.896.291a10.28 10.28 0 011.875 5.959c0 2.229-.708 4.25-1.875 5.958.583.188 1.23.292 1.896.292zm-10.417 0a6.224 6.224 0 006.23-6.25c0-3.459-2.771-6.25-6.23-6.25a6.242 6.242 0 00-6.25 6.25 6.242 6.242 0 006.25 6.25zm0 4.166c-4.166 0-12.5 2.084-12.5 6.25v2.084a2.09 2.09 0 002.084 2.083H927.5a2.09 2.09 0 002.083-2.083v-2.084c0-4.166-8.333-6.25-12.5-6.25zm13.792.334c1.73 1.52 2.875 3.458 2.875 5.916v3.125c0 .355-.042.709-.104 1.042h5.312c.584 0 1.042-.458 1.042-1.042v-3.125c0-3.208-4.938-5.187-9.125-5.916z"/>
  </g>
</svg>