<svg xmlns="http://www.w3.org/2000/svg" width="25" height="24">
  <g transform="translate(-535 -82)">
    <path fill="none" d="M560 82h-24v24h24z"/>
    <path fill="#2a99f7" fill-rule="nonzero" d="M553 89.56c0-.94 1.14-1.42 1.81-.75l4.48 4.48c.39.39.39 1.02 0 1.41l-4.48 4.48c-.67.68-1.81.2-1.81-.74 0-.28.11-.55.31-.75L557 94l-3.69-3.69c-.2-.2-.31-.47-.31-.75zM547 91v-1.59c0-.89 1.08-1.34 1.71-.71l4.59 4.59c.39.39.39 1.02 0 1.41l-4.59 4.59c-.63.63-1.71.18-1.71-.71V96.9c-5 0-8.5 1.6-11 5.1 1-5 4-10 11-11z"/>
  </g>
</svg>