<?xml version="1.0" encoding="UTF-8"?>
<svg width="23px" height="19px" viewBox="0 0 23 19" version="1.1" xmlns="http://www.w3.org/2000/svg" xmlns:xlink="http://www.w3.org/1999/xlink">
    <title>t</title>
    <g id="UI-+-Inter" stroke="none" stroke-width="1" fill="none" fill-rule="evenodd">
        <g id="10-Dashboard---Menu-Expanded" transform="translate(-1303.000000, -288.000000)" fill="#2A99F7" fill-rule="nonzero">
            <path d="M1310.28026,306.297856 C1312.33104,306.297856 1314.14744,305.909672 1315.72947,305.133306 C1317.31146,304.35694 1318.63714,303.360847 1319.70652,302.145028 C1320.77585,300.929209 1321.58884,299.566906 1322.14548,298.058118 C1322.70212,296.54933 1322.98044,295.062516 1322.98044,293.597673 L1322.98044,292.982439 C1323.83005,292.396502 1324.57712,291.634785 1325.22165,290.697285 C1324.43064,291.019474 1323.56638,291.25385 1322.62888,291.400409 C1323.59568,290.814472 1324.25486,289.979512 1324.60642,288.895529 C1324.16696,289.159201 1323.71286,289.386251 1323.24411,289.576681 C1322.77536,289.767111 1322.27732,289.90627 1321.74998,289.994161 C1321.33982,289.554708 1320.85642,289.21047 1320.29978,288.961447 C1319.74323,288.712424 1319.14265,288.587912 1318.49803,288.587912 C1317.88279,288.587912 1317.30418,288.705099 1316.76219,288.939474 C1316.22021,289.173766 1315.74414,289.496032 1315.33397,289.90627 C1314.92388,290.316406 1314.60162,290.792481 1314.36717,291.334491 C1314.13279,291.876484 1314.01561,292.455096 1314.01561,293.07033 C1314.01561,293.392595 1314.05955,293.729509 1314.14744,294.081071 C1312.30174,293.99318 1310.58788,293.531755 1309.00585,292.696795 C1307.42382,291.861835 1306.07616,290.770527 1304.96288,289.422872 C1304.55273,290.0967 1304.34765,290.84377 1304.34765,291.664081 C1304.34765,292.425799 1304.53075,293.128924 1304.89696,293.773454 C1305.26317,294.417984 1305.73925,294.945327 1306.32519,295.355484 C1305.94433,295.355484 1305.59276,295.304215 1305.2705,295.201675 C1304.94823,295.099136 1304.62597,294.974625 1304.3037,294.82814 L1304.3037,294.872086 C1304.3037,295.956069 1304.64062,296.900892 1305.31444,297.706556 C1305.98826,298.512195 1306.83787,299.032215 1307.86327,299.266613 C1307.51171,299.354503 1307.13085,299.398449 1306.72069,299.398449 L1306.30321,299.398449 C1306.17138,299.398449 1306.03222,299.369152 1305.88573,299.310558 C1306.1787,300.218761 1306.69872,300.958506 1307.44579,301.529794 C1308.19286,302.101083 1309.06444,302.401375 1310.06053,302.430672 C1309.29881,303.016609 1308.44188,303.485359 1307.48973,303.836921 C1306.53759,304.188483 1305.53417,304.364264 1304.47948,304.364264 C1304.3037,304.364264 1304.12792,304.35694 1303.95214,304.342292 C1303.77636,304.327643 1303.60058,304.305671 1303.4248,304.276374 C1304.42089,304.920904 1305.49022,305.418951 1306.6328,305.770513 C1307.77538,306.122075 1308.9912,306.297856 1310.28026,306.297856 Z" id="t"></path>
        </g>
    </g>
</svg>