<?xml version="1.0" standalone="no"?>
<!DOCTYPE svg PUBLIC "-//W3C//DTD SVG 20010904//EN"
 "http://www.w3.org/TR/2001/REC-SVG-20010904/DTD/svg10.dtd">
<svg version="1.0" xmlns="http://www.w3.org/2000/svg"
 width="500.000000pt" height="500.000000pt" viewBox="0 0 500.000000 500.000000"
 preserveAspectRatio="xMidYMid meet">
<metadata>
Created by potrace 1.11, written by Peter Selinger 2001-2013
</metadata>
<g transform="translate(0.000000,500.000000) scale(0.100000,-0.100000)"
fill="#000000" stroke="none">
<path d="M726 3789 c-62 -15 -153 -68 -197 -116 -22 -24 -55 -74 -72 -111
l-32 -67 0 -995 0 -995 32 -67 c44 -93 100 -151 191 -196 l76 -37 1776 0 1776
0 76 37 c91 45 147 103 191 196 l32 67 0 995 0 995 -32 67 c-44 93 -100 151
-191 196 l-76 37 -1755 2 c-1038 0 -1772 -3 -1795 -8z m1054 -1314 l0 -705
-140 0 -140 0 0 705 0 705 140 0 140 0 0 -705z m1783 677 c109 -44 186 -121
228 -229 30 -77 33 -232 6 -309 -38 -110 -117 -191 -230 -238 -50 -20 -69 -21
-479 -24 l-428 -3 0 -289 0 -290 -140 0 -140 0 0 705 0 706 563 -3 562 -3 58
-23z"/>
<path d="M2660 2766 l0 -166 383 0 c421 0 425 1 471 63 28 38 30 159 3 200
-41 63 -33 62 -464 65 l-393 3 0 -165z"/>
</g>
</svg>
