<?xml version="1.0" encoding="UTF-8"?>
<svg width="500px" height="500px" viewBox="0 0 500 500" version="1.1" xmlns="http://www.w3.org/2000/svg" xmlns:xlink="http://www.w3.org/1999/xlink">
    <title>Group 12</title>
    <g id="UI-+-Inter" stroke="none" stroke-width="1" fill="none" fill-rule="evenodd">
        <g id="Group-12">
            <rect id="Rectangle" x="0" y="0" width="500" height="500"></rect>
            <g id="Group-2" transform="translate(12.000000, 61.000000)">
                <rect id="Rectangle" fill="#EC1C24" x="0.100036049" y="0" width="475" height="378.000009" rx="100"></rect>
                <path d="M132.400039,295.826094 L132.400039,90.3913064 L91.3130816,90.3913064 L91.3130816,295.826094 L132.400039,295.826094 Z M259.769607,295.826094 L259.769607,211.597831 L366.595697,211.597831 C403.573958,211.597831 428.226133,187.356526 428.226133,152.021743 C428.226133,115.043481 403.573958,90.3913064 366.595697,90.3913064 L218.68265,90.3913064 L218.68265,295.826094 L259.769607,295.826094 Z M366.595697,174.619569 L259.769607,174.619569 L259.769607,127.369568 L366.595697,127.369568 C378.921784,127.369568 387.139175,135.58696 387.139175,147.913047 L387.139175,154.07609 C387.139175,166.402178 378.921784,174.619569 366.595697,174.619569 Z" id="IP" fill="#FFFFFF" fill-rule="nonzero"></path>
            </g>
        </g>
    </g>
</svg>