<?xml version="1.0" encoding="UTF-8"?>
<svg width="88px" height="102px" viewBox="0 0 88 102" version="1.1" xmlns="http://www.w3.org/2000/svg" xmlns:xlink="http://www.w3.org/1999/xlink">
    <title>director</title>
    <defs>
        <filter id="filter-1">
            <feColorMatrix in="SourceGraphic" type="matrix" values="0 0 0 0 1.000000 0 0 0 0 1.000000 0 0 0 0 1.000000 0 0 0 1.000000 0"></feColorMatrix>
        </filter>
    </defs>
    <g id="UI---Latest" stroke="none" stroke-width="1" fill="none" fill-rule="evenodd">
        <g id="director" transform="translate(-680.000000, -720.000000)" filter="url(#filter-1)">
            <g transform="translate(680.000000, 720.000000)">
                <path d="M14.491,36.9345 C15.318,35.2085 17.0905,34.0935 19.005,34.0935 C19.755,34.0935 20.4795,34.259 21.1605,34.5845 L26.516,37.1505 C25.487,32.674 22.003,28.857 18.1235,29.32 C13.7555,29.84 8.7935,34.2045 9.0395,41.9425 C9.44,52.58 11.087,58.9775 16.239,68.9025 C17.505,70.9455 18.8695,72.284 20.2715,73.1185 C21.1965,73.7645 22.3045,74.1615 23.5025,74.226 C24.2175,74.3135 24.9305,74.3125 25.6355,74.243 L49.04,74.243 L62.674,92.543 C63.9005,94.19 65.784,95.0595 67.691,95.0595 C68.99,95.0595 70.299,94.6565 71.4205,93.821 C74.187,91.759 74.76,87.8435 72.698,85.076 L57.189,64.2585 C56.0035,62.668 54.1615,61.7425 52.177,61.7425 L32.4165,61.7425 C30.641,57.849 29.4715,53.4645 28.6055,49.2405 L16.8405,43.6025 C14.354,42.4125 13.3,39.4205 14.491,36.9345 Z" id="Path" fill="#000000" fill-rule="nonzero"></path>
                <path d="M12.919,81.0115 L17.2545,81.0115 L25.295,89.0525 L14.8765,99.4705 C14.487,99.8615 14.487,100.495 14.8765,100.885 C15.0725,101.0805 15.3285,101.178 15.5845,101.178 C15.8405,101.178 16.096,101.0805 16.291,100.885 L26.709,90.467 L37.1265,100.885 C37.322,101.0805 37.578,101.178 37.8345,101.178 C38.0905,101.178 38.346,101.0805 38.541,100.885 C38.932,100.495 38.932,99.862 38.541,99.4705 L28.1235,89.0525 L36.1645,81.0115 L40.001,81.0115 C41.1055,81.0115 42.0005,80.1155 42.0005,79.011 C42.0005,77.9065 41.1055,77.0115 40.001,77.0115 L15.5815,77.0105 L3.845,48.9885 C3.4185,47.9695 2.2465,47.489 1.2285,47.916 C0.2095,48.3425 -0.271,49.5145 0.156,50.5335 L12.919,81.0115 Z M26.7095,87.638 L20.0825,81.0115 L33.336,81.0115 L26.7095,87.638 Z" id="Shape" fill="#000000" fill-rule="nonzero"></path>
                <path d="M20.4975,26.191 C26.42,24.314 29.6975,17.9915 27.8205,12.071 C27.683,11.6385 27.5195,11.222 27.337,10.8185 C26.5685,11.0905 25.7645,11.3515 24.9255,11.5925 C19.1485,13.252 14.125,13.411 13.7045,11.949 C13.6985,11.929 13.7035,11.907 13.6995,11.887 C14.7705,12.942 19.4475,12.2325 24.6495,10.16 C28.6675,8.56 31.8905,6.5865 33.179,5.0775 C33.6805,4.4895 33.898,3.97 33.74,3.5735 C33.177,2.1605 28.194,2.817 22.6105,5.041 C22.382,5.132 22.1605,5.226 21.9365,5.3195 C19.452,4.1345 16.531,3.851 13.7,4.7485 C7.7795,6.6245 4.5015,12.948 6.378,18.8685 C8.2555,24.7895 14.5775,28.068 20.4975,26.191 Z" id="Path" fill="#000000" fill-rule="nonzero"></path>
                <path d="M32.483,16.5145 L31.1675,16.5145 L31.1675,22.046 L32.483,22.046 L32.483,21.7675 L37.0745,22.7685 C36.815,23.4395 36.668,24.165 36.668,24.927 C36.668,25.8515 36.8835,26.724 37.257,27.506 C37.547,27 37.92,26.5595 38.3525,26.1925 C38.2345,25.7905 38.168,25.3665 38.168,24.927 C38.168,24.273 38.3105,23.654 38.5625,23.0925 L47.166,24.9685 C47.156,26.066 46.75,27.0695 46.086,27.846 C46.113,27.902 46.1435,27.9555 46.1685,28.0125 C46.3755,28.4875 46.504,28.9825 46.557,29.483 C47.7555,28.456 48.548,26.9685 48.6495,25.291 L55.2275,26.7245 L55.2275,27.6905 L56.543,27.6905 L56.543,10.869 L55.2275,10.869 L55.2275,11.8355 L32.4835,16.7925 L32.4835,16.5145 L32.483,16.5145 Z" id="Path" fill="#000000" fill-rule="nonzero"></path>
                <path d="M43.0475,26.2885 C40.992,25.48 38.6695,26.4915 37.862,28.5475 L32.8505,41.295 L20.729,35.487 C18.737,34.533 16.348,35.3735 15.393,37.366 C14.439,39.358 15.2795,41.747 17.273,42.7025 L17.272,42.7015 L33.272,50.3685 C33.819,50.63 34.4085,50.7615 35.0005,50.7615 C35.4955,50.7615 35.9925,50.669 36.4645,50.484 C37.5015,50.0765 38.316,49.261 38.724,48.224 L45.307,31.4745 C46.115,29.418 45.104,27.096 43.0475,26.2885 Z" id="Path" fill="#000000" fill-rule="nonzero"></path>
                <polygon id="Path" fill="#000000" fill-rule="nonzero" points="84.6975 1.6585 83.991 0 62.2855 10.7015 62.369 11.033"></polygon>
                <polygon id="Path" fill="#000000" fill-rule="nonzero" points="63.224 16.6195 87.217 13.3405 86.9645 11.555 63.229 16.279"></polygon>
                <polygon id="Path" fill="#000000" fill-rule="nonzero" points="84.6975 37.1275 62.369 27.7535 62.2855 28.0845 83.991 38.786"></polygon>
                <polygon id="Path" fill="#000000" fill-rule="nonzero" points="63.229 22.5075 86.9645 27.231 87.217 25.446 63.224 22.1665"></polygon>
            </g>
        </g>
    </g>
</svg>