<?xml version="1.0" encoding="UTF-8"?>
<svg width="98px" height="101px" viewBox="0 0 98 101" version="1.1" xmlns="http://www.w3.org/2000/svg" xmlns:xlink="http://www.w3.org/1999/xlink">
    <title>hat</title>
    <g id="UI---Latest" stroke="none" stroke-width="1" fill="none" fill-rule="evenodd">
        <g id="1-Our-Story-4---Expanded" transform="translate(-223.000000, -719.000000)" fill="#FFFFFF" fill-rule="nonzero">
            <g id="hat" transform="translate(223.000000, 719.000000)">
                <path d="M67.7169972,3.0887391 C65.3151063,-0.238860904 60.7144518,-1.0032609 57.4204639,1.4243391 C57.1674457,1.5863391 56.939373,1.7723391 56.7338699,1.9799391 C52.3173366,6.0947391 45.4989124,6.0947391 41.0598093,1.9799391 C38.0390336,-0.817260904 33.3944275,-0.632460904 30.6254821,2.4191391 C30.419979,2.6267391 30.2370457,2.8583391 30.0766821,3.0887391 C24.5613609,10.7855391 20.6484881,19.5479391 18.6124639,28.8167391 C32.5474699,34.5491391 47.8105245,36.1919391 62.6601972,33.6011391 L59.4339184,20.2175391 L72.9353487,20.5643391 L75.1091669,30.3647391 C76.4811669,29.8799391 77.8317851,29.3699391 79.1586457,28.8155391 C77.1214336,19.5479391 73.2323184,10.7855391 67.7169972,3.0887391 Z" id="Path"></path>
                <path d="M1.88475479,37.2071391 L18.5198093,34.7579391 C37.9927063,42.7775391 59.7760275,42.7775391 79.2501124,34.7579391 L95.9077366,37.2071391 C96.5943305,37.3007391 97.2120275,37.7399391 97.5315669,38.3639391 C98.1266942,39.4739391 97.6919305,40.8143391 96.6157124,41.3915391 C66.2048275,54.9155391 31.5841002,54.9155391 1.17440328,41.3915391 C0.556706306,41.0435391 0.12194267,40.4447391 0.0304760033,39.7271391 C-0.173839148,38.5019391 0.671930549,37.3691391 1.88475479,37.2071391 Z" id="Path"></path>
                <path d="M12.5934821,49.2743391 C14.3099669,49.8059391 16.0490215,50.2907391 17.788076,50.7527391 C15.0642699,56.3939391 17.0563427,63.1679391 22.3875427,66.3563391 C25.1339184,79.4639391 34.3328518,90.2123391 46.7794457,94.8359391 C48.2429124,95.3891391 49.8691184,95.3891391 51.3325851,94.8359391 C63.7803669,90.2111391 72.9804881,79.4627391 75.725676,66.3563391 C81.0794457,63.1439391 83.0715184,56.3015391 80.2788154,50.6843391 C82.0190578,50.2211391 83.7581124,49.7123391 85.4734093,49.1831391 C88.5393245,56.3483391 86.4807305,64.7171391 80.4629366,69.6155391 C76.8007063,83.5787391 66.6182093,94.9043391 53.185676,99.9215391 C50.5319548,100.915139 47.580076,100.915139 44.9251669,99.9215391 C31.4950093,94.9043391 21.3125124,83.5775391 17.6514699,69.6143391 C11.6562457,64.7159391 9.59646388,56.4167391 12.5934821,49.2743391 Z" id="Path"></path>
            </g>
        </g>
    </g>
</svg>