<?xml version="1.0" encoding="UTF-8"?>
<svg width="89px" height="99px" viewBox="0 0 89 99" version="1.1" xmlns="http://www.w3.org/2000/svg" xmlns:xlink="http://www.w3.org/1999/xlink">
    <title>idea</title>
    <g id="UI---Latest" stroke="none" stroke-width="1" fill="none" fill-rule="evenodd">
        <g id="1-Our-Story-4---Expanded" transform="translate(-1120.000000, -721.000000)" fill="#FFFFFF" fill-rule="nonzero">
            <path d="M1208.52278,773.4051 C1205.68152,768.1482 1199.01952,764.5116 1199.01952,758.0909 C1199.01952,754.7458 1201.2954,753.6733 1201.2954,749.875 C1201.2954,746.0811 1200.94977,742.0276 1197.91305,737.7002 C1193.1559,730.9154 1183.1005,721 1160.78892,721 C1133.96202,721 1111.53339,740.987 1123.13033,772.0895 C1127.0891,783.3986 1137.36093,788.0615 1137.36093,794.7319 C1137.36093,797.6326 1136.58685,802.7905 1134.50421,807.6954 C1131.79767,814.0633 1130.73206,816.1005 1130.73206,816.1005 C1129.60792,818.2444 1130.67574,820 1133.10622,820 L1176.44844,820 L1176.98069,820 C1178.67242,817.8968 1177.2424,811.035 1177.2424,811.035 C1176.62401,808.0738 1178.59401,805.898 1181.61417,806.2027 C1181.61417,806.2027 1183.57533,806.4029 1189.23025,807.064 C1192.84891,807.4875 1196.39027,807.5172 1198.68603,806.2544 C1204.57064,803.0215 1198.78762,797.2498 1198.78762,795.2412 C1198.78762,793.2282 1202.954,793.3162 1202.954,791.0931 C1202.954,788.8711 1199.0405,789.8787 1198.9886,788.4652 C1198.93891,787.0495 1204.37408,788.1539 1204.37408,785.9297 C1204.37408,783.7066 1202.14016,783.2358 1202.14016,780.7564 C1202.14016,778.838 1207.4892,778.4662 1208.71492,776.0253 C1209.08154,775.3037 1209.16988,774.6019 1208.52278,773.4051 Z M1165.43896,736.0194 L1167.26762,730.4072 C1167.52601,729.6141 1168.38071,729.1796 1169.17688,729.4381 C1169.97416,729.6966 1170.40813,730.5469 1170.15084,731.34 L1168.31998,736.9522 C1168.06268,737.7453 1167.20688,738.1787 1166.41071,737.9213 C1165.61343,737.6639 1165.17725,736.8125 1165.43896,736.0194 Z M1151.43252,729.4381 C1152.22869,729.1807 1153.08229,729.6141 1153.34179,730.4072 L1155.17155,736.0194 C1155.42994,736.8114 1154.99487,737.6639 1154.19869,737.9213 C1153.40252,738.1787 1152.55003,737.7453 1152.29053,736.9522 L1150.45967,731.34 C1150.20127,730.5469 1150.63525,729.6955 1151.43252,729.4381 Z M1131.59338,756.6378 C1131.59338,755.804 1132.2714,755.1297 1133.10843,755.1297 L1139.02947,755.1297 C1139.8676,755.1297 1140.54562,755.804 1140.54562,756.6378 C1140.54562,757.4716 1139.8676,758.147 1139.02947,758.147 L1133.10843,758.147 C1132.2714,758.147 1131.59338,757.4716 1131.59338,756.6378 Z M1143.98318,770.3152 L1139.1929,773.7824 C1138.51599,774.2719 1137.56853,774.1245 1137.07714,773.4491 C1136.58464,772.7748 1136.73482,771.831 1137.41283,771.3415 L1142.20311,767.8732 C1142.88113,767.3837 1143.82858,767.5311 1144.31998,768.2065 C1144.81138,768.883 1144.6612,769.8246 1143.98318,770.3152 Z M1144.31998,745.0713 C1143.82858,745.7456 1142.88223,745.8941 1142.20532,745.4035 L1137.41283,741.9363 C1136.73482,741.4468 1136.58464,740.503 1137.07714,739.8276 C1137.56853,739.1533 1138.51599,739.0037 1139.1929,739.4943 L1143.98539,742.9626 C1144.6612,743.4532 1144.81248,744.397 1144.31998,745.0713 Z M1164.10612,783.8199 L1164.03655,783.8199 C1164.03876,783.8397 1164.0498,783.8562 1164.0498,783.8782 C1164.0498,784.6284 1163.43914,785.2356 1162.68604,785.2356 L1157.92557,785.2356 C1157.17247,785.2356 1156.56402,784.6262 1156.56402,783.8782 C1156.56402,783.8562 1156.57506,783.8397 1156.57506,783.8199 L1156.50549,783.8199 C1155.75239,783.8199 1155.14284,783.2116 1155.14284,782.4603 C1155.14284,781.7123 1155.75349,781.1029 1156.50549,781.1029 L1164.10833,781.1029 C1164.86143,781.1029 1165.47098,781.7134 1165.47098,782.4603 C1165.46878,783.2127 1164.85812,783.8199 1164.10612,783.8199 Z M1165.40362,780.1569 L1155.20468,780.1569 C1154.45157,780.1569 1153.84091,779.5486 1153.84091,778.7995 C1153.84091,778.0471 1154.45267,777.4399 1155.20468,777.4399 L1165.40362,777.4399 C1166.15563,777.4399 1166.76518,778.0482 1166.76518,778.7995 C1166.76739,779.5497 1166.15563,780.1569 1165.40362,780.1569 Z M1168.85002,767.8303 C1167.87717,769.0898 1167.70269,770.2888 1167.53374,771.4493 C1167.14283,774.1344 1166.45819,775.7657 1160.30305,775.7657 C1154.149,775.7657 1153.46657,774.1355 1153.07456,771.4493 C1152.90561,770.2888 1152.73003,769.0887 1151.75717,767.8303 C1148.88168,764.1112 1146.07465,760.1512 1146.07465,756.2165 C1146.07465,748.368 1152.45728,741.9825 1160.30305,741.9825 C1168.14882,741.9825 1174.53475,748.368 1174.53475,756.2165 C1174.53475,760.1468 1171.72662,764.109 1168.85002,767.8303 Z M1176.62401,742.9626 L1181.4165,739.4943 C1182.09342,739.0048 1183.04198,739.1522 1183.53227,739.8276 C1184.02366,740.503 1183.87569,741.4457 1183.19768,741.9363 L1178.40408,745.4046 C1177.72827,745.8952 1176.77971,745.7456 1176.28832,745.0713 C1175.79582,744.3959 1175.946,743.4532 1176.62401,742.9626 Z M1183.52895,773.4502 C1183.03977,774.1245 1182.09231,774.273 1181.4154,773.7835 L1176.62512,770.3163 C1175.946,769.8268 1175.79692,768.883 1176.28721,768.2087 C1176.77861,767.5344 1177.72717,767.3859 1178.40408,767.8754 L1183.19436,771.3437 C1183.87348,771.8321 1184.02366,772.7748 1183.52895,773.4502 Z M1187.49987,758.147 L1181.57662,758.147 C1180.73959,758.147 1180.06158,757.4716 1180.06158,756.6378 C1180.06158,755.804 1180.73959,755.1297 1181.57662,755.1297 L1187.49987,755.1297 C1188.3369,755.1297 1189.01492,755.804 1189.01492,756.6378 C1189.01492,757.4716 1188.3369,758.147 1187.49987,758.147 Z" id="idea"></path>
        </g>
    </g>
</svg>