<svg xmlns="http://www.w3.org/2000/svg" width="60" height="60" viewBox="0 0 60 60">
    <defs>
        <filter id="rjatiml0ma">
            <feColorMatrix in="SourceGraphic" values="0 0 0 0 1.000000 0 0 0 0 1.000000 0 0 0 0 1.000000 0 0 0 1.000000 0"/>
        </filter>
    </defs>
    <g fill="none" fill-rule="evenodd">
        <g>
            <g filter="url(#rjatiml0ma)" transform="translate(-1099 -325) translate(330 294)">
                <g>
                    <g>
                        <path d="M0 0H60V60H0z" transform="translate(769 31)"/>
                        <path d="M0 0H60V60H0z" transform="translate(769 31)"/>
                    </g>
                    <path fill="#000" fill-rule="nonzero" d="M42.5 26.075V7.5C42.5 6.125 41.375 5 40 5H20c-1.375 0-2.5 1.125-2.5 2.5v18.575c0 .875.45 1.7 1.225 2.15l10.45 6.275-2.475 5.85-5.55.475c-1.15.1-1.6 1.475-.75 2.2l4.225 3.65-1.275 5.45c-.25 1.075.925 1.925 1.875 1.35l4.775-2.9 4.775 2.875c.95.575 2.125-.275 1.875-1.35l-1.275-5.45L39.6 43c.825-.725.4-2.1-.725-2.2l-5.55-.475-2.475-5.85L41.3 28.2c.75-.425 1.2-1.225 1.2-2.125zm-10 4.5l-2.5 1.5-2.5-1.5V7.5h5v23.075z" transform="translate(769 31)"/>
                </g>
            </g>
        </g>
    </g>
</svg>
