<svg xmlns="http://www.w3.org/2000/svg" width="60" height="60" viewBox="0 0 60 60">
    <defs>
        <filter id="gn4ss05isa">
            <feColorMatrix in="SourceGraphic" values="0 0 0 0 1.000000 0 0 0 0 1.000000 0 0 0 0 1.000000 0 0 0 1.000000 0"/>
        </filter>
    </defs>
    <g fill="none" fill-rule="evenodd">
        <g>
            <g filter="url(#gn4ss05isa)" transform="translate(-764 -325) translate(330 294)">
                <g>
                    <path d="M0 0L60 0 60 60 0 60z" transform="translate(434 31)"/>
                    <path fill="#000" fill-rule="nonzero" d="M30 50l-2.15-2.15c-2.95-2.95-2.925-7.75.05-10.65l2.1-2.05c-.975-.1-1.7-.15-2.5-.15-6.675 0-20 3.35-20 10v5H30zm-2.5-20c5.525 0 10-4.475 10-10s-4.475-10-10-10-10 4.475-10 10 4.475 10 10 10M40.45 49.45c-.975.975-2.575.975-3.55 0l-5.175-5.225c-.95-.975-.95-2.525 0-3.475l.025-.025c.975-.975 2.55-.975 3.5 0l3.425 3.425L49.75 33c.975-.975 2.55-.975 3.525 0l.025.025c.95.975.95 2.525 0 3.475L40.45 49.45z" transform="translate(434 31)"/>
                </g>
            </g>
        </g>
    </g>
</svg>
