<svg xmlns="http://www.w3.org/2000/svg" width="24" height="24">
  <g fill="none" fill-rule="evenodd" transform="translate(-61 -405)">
    <path d="M61 405h24v24H61z"/>
    <path fill="#fff" fill-rule="nonzero" d="M77 415h-8c-.55 0-1 .45-1 1s.45 1 1 1h8c.55 0 1-.45 1-1s-.45-1-1-1zm3-7h-1v-1c0-.55-.45-1-1-1s-1 .45-1 1v1h-8v-1c0-.55-.45-1-1-1s-1 .45-1 1v1h-1a2 2 0 00-2 2v14a2 2 0 002 2h14c1.1 0 2-.9 2-2v-14c0-1.1-.9-2-2-2zm-1 16H67c-.55 0-1-.45-1-1v-10h14v10c0 .55-.45 1-1 1zm-5-5h-5c-.55 0-1 .45-1 1s.45 1 1 1h5c.55 0 1-.45 1-1s-.45-1-1-1z"/>
  </g>
</svg>