<svg xmlns="http://www.w3.org/2000/svg" width="24" height="24">
  <g fill="none" transform="translate(-61 -183)">
    <path d="M61 183h24v24H61z"/>
    <path fill="#fff" d="M65 196h6c.55 0 1-.45 1-1v-8c0-.55-.45-1-1-1h-6c-.55 0-1 .45-1 1v8c0 .55.45 1 1 1zm0 8h6c.55 0 1-.45 1-1v-4c0-.55-.45-1-1-1h-6c-.55 0-1 .45-1 1v4c0 .55.45 1 1 1zm10 0h6c.55 0 1-.45 1-1v-8c0-.55-.45-1-1-1h-6c-.55 0-1 .45-1 1v8c0 .55.45 1 1 1zm-1-17v4c0 .55.45 1 1 1h6c.55 0 1-.45 1-1v-4c0-.55-.45-1-1-1h-6c-.55 0-1 .45-1 1z"/>
  </g>
</svg>