<svg xmlns="http://www.w3.org/2000/svg" width="24" height="24">
  <g fill="none" transform="translate(-380 -54)">
    <path d="M380 54h24v24h-24z"/>
    <path fill="#fff" fill-rule="nonzero" d="M384 72h11c.55 0 1-.45 1-1s-.45-1-1-1h-11c-.55 0-1 .45-1 1s.45 1 1 1zm0-5h8c.55 0 1-.45 1-1s-.45-1-1-1h-8c-.55 0-1 .45-1 1s.45 1 1 1zm-1-6c0 .55.45 1 1 1h11c.55 0 1-.45 1-1s-.45-1-1-1h-11c-.55 0-1 .45-1 1zm17.3 7.88L397.42 66l2.88-2.88a.996.996 0 10-1.41-1.41l-3.59 3.59a.996.996 0 000 1.41l3.59 3.59c.39.39 1.02.39 1.41 0 .38-.39.39-1.03 0-1.42z"/>
  </g>
</svg>