<svg xmlns="http://www.w3.org/2000/svg" width="24" height="24">
  <g fill="none" transform="translate(-226 -54)">
    <path d="M226 54h24v24h-24z"/>
    <path fill="#fff" fill-rule="nonzero" d="M229.77 72h8.46c.424 0 .77-.45.77-1s-.346-1-.77-1h-8.46c-.424 0-.77.45-.77 1s.346 1 .77 1zm.23-5h8c.55 0 1-.45 1-1s-.45-1-1-1h-8c-.55 0-1 .45-1 1s.45 1 1 1zm-1-6c0 .55.346 1 .77 1h8.46c.424 0 .77-.45.77-1s-.346-1-.77-1h-8.46c-.425 0-.77.45-.77 1zm12.3 2.13l2.88 2.88-2.88 2.88a.996.996 0 101.41 1.41l3.59-3.59a.996.996 0 000-1.41l-3.59-3.59a.996.996 0 00-1.41 0c-.38.39-.39 1.03 0 1.42z"/>
  </g>
</svg>