<svg xmlns="http://www.w3.org/2000/svg" width="24" height="24">

  <g fill="none" transform="translate(-61 -295)">
    <path d="M61 295h24v24H61z"/>
    <path fill="#fff" fill-rule="nonzero" d="M80 298H66c-1.1 0-2 .9-2 2v7c0 1.1.9 2 2 2h14c1.1 0 2-.9 2-2v-7c0-1.1-.9-2-2-2zm0 6h-3.14c-.47 0-.84.33-.97.78-.36 1.26-1.54 2.22-2.89 2.22s-2.53-.96-2.89-2.22c-.13-.45-.5-.78-.97-.78H66v-3c0-.55.45-1 1-1h12c.55 0 1 .45 1 1v3zm-3.13 7H81c.55 0 1 .45 1 1v2c0 1.1-.9 2-2 2H66c-1.1 0-2-.9-2-2v-2c0-.55.45-1 1-1h4.13c.47 0 .85.34.98.8a2.997 2.997 0 005.78 0c.13-.46.51-.8.98-.8z"/>
  </g>
</svg>