<svg xmlns="http://www.w3.org/2000/svg" width="94" height="96">
  <defs>
    <filter id="a">
      <feColorMatrix in="SourceGraphic" values="0 0 0 0 1.000000 0 0 0 0 1.000000 0 0 0 0 1.000000 0 0 0 1.000000 0"/>
    </filter>
  </defs>
  <g fill="none" fill-rule="evenodd" filter="url(#a)" transform="translate(-171 -958)">
    <g fill="#000" fill-rule="nonzero">
      <path d="M228.9 1002.3c0-1.7-1.4-3.1-3.1-3.1h-32.5c-1.7 0-3.1 1.4-3.1 3.1 0 1.7 1.4 3.1 3.1 3.1h32.5c1.7 0 3.1-1.4 3.1-3.1zM190.1 1018.3c0 1.7 1.4 3.1 3.1 3.1h24.4c.4-.4.7-.8 1.1-1.2l5.1-5.1h-30.5c-1.8.1-3.2 1.5-3.2 3.2zM190.1 1034.3c0 1.8 1.4 3.1 3.1 3.1h17.4c0-.3.1-.5.1-.8l.7-3c.2-.9.4-1.7.7-2.5h-18.8c-1.8.1-3.2 1.5-3.2 3.2z"/>
      <path d="M241.6 1042.4c0 2.7-2.2 4.8-4.8 4.8h-54.6c-2.7 0-4.8-2.1-4.8-4.8v-53H194c4.4 0 8-3.6 8-8v-16.6h34.9c1.3 0 2.5.5 3.4 1.4.9.9 1.4 2.1 1.4 3.4v27.8l6.3-6.3v-21.5c0-3-1.2-5.8-3.3-7.9-2.1-2.1-4.9-3.2-7.8-3.2l-36.4.1c-3 0-5.7 1.2-7.8 3.2l-18.4 18.4c-2.1 2.1-3.2 4.9-3.2 7.9v54.4c0 6.1 5 11.1 11.1 11.1h54.7c6.1 0 11.1-5 11.1-11.1v-18l-6.3 6.3v11.6h-.1zm-46-74.6v13.7c0 .9-.7 1.7-1.7 1.7h-13.6l15.3-15.4z"/>
      <path d="M223.83 1022.29l22.207-22.2 9.544 9.547-22.206 22.2zM264.1 997.4l-5.9-5.9c-1-1-2.6-1.1-3.5-.2l-5.1 5.1 9.5 9.5 5.1-5.1c1-.8.9-2.4-.1-3.4zM215.7 1037.7c-.3 1.3 1 2.5 2.2 2.2l3-.7c3.2-.7 6.2-2.1 8.8-4.1l-9.3-9.1c-2 2.6-3.4 5.5-4.1 8.8l-.6 2.9z"/>
    </g>
  </g>
</svg>
