<svg xmlns="http://www.w3.org/2000/svg" width="69" height="97">
  <defs>
    <filter id="a">
      <feColorMatrix in="SourceGraphic" values="0 0 0 0 1.000000 0 0 0 0 1.000000 0 0 0 0 1.000000 0 0 0 1.000000 0"/>
    </filter>
  </defs>
  <g fill="none" fill-rule="evenodd">
    <g>
      <rect width="69" height="43" fill="#FFF" rx="8.64"/>
      <path fill="#2A99F7" fill-rule="nonzero" d="M19.35 37.26V7.914h-5.87v29.348h5.87zm18.196 0V25.229h15.26c5.283 0 8.805-3.463 8.805-8.51 0-5.283-3.522-8.805-8.804-8.805h-21.13v29.348h5.869zm15.26-17.314h-15.26v-6.75h15.26c1.761 0 2.935 1.174 2.935 2.934v.88c0 1.762-1.174 2.936-2.934 2.936z"/>
    </g>
    <g filter="url(#a)">
      <path fill="#000" fill-rule="nonzero" d="M38.395 96.68h-.033a1.364 1.364 0 01-1.305-1.095l-7.002-34.998-5.351 21.411a1.366 1.366 0 01-1.294 1.035c-.59-.006-1.163-.385-1.338-.972l-2.787-9.29-2.79 9.29a1.36 1.36 0 01-1.305.972H7v-2.73h7.174l3.806-12.678c.347-1.155 2.266-1.155 2.613 0l2.67 8.894 5.62-22.482c.156-.62.708-1.032 1.357-1.034a1.364 1.364 0 011.305 1.097l7.003 34.996 5.35-21.411a1.37 1.37 0 011.295-1.035c.628.05 1.163.388 1.337.972l2.79 9.29 2.788-9.29a1.367 1.367 0 011.307-.972h8.19v2.73h-7.174l-3.806 12.678c-.346 1.155-2.266 1.155-2.612 0l-2.67-8.891-5.621 22.478a1.368 1.368 0 01-1.327 1.035z"/>
    </g>
  </g>
</svg>
