<svg xmlns="http://www.w3.org/2000/svg" width="100" height="76">
  <defs>
    <filter id="a">
      <feColorMatrix in="SourceGraphic" values="0 0 0 0 0.165949 0 0 0 0 0.601202 0 0 0 0 0.967731 0 0 0 1.000000 0"/>
    </filter>
  </defs>
  <g fill="none" fill-rule="evenodd">
    <path fill="#FFF" fill-rule="nonzero" d="M97.508 66.506a.5.5 0 00.499-.5V2.499a.5.5 0 00-.499-.5H2.492a.5.5 0 00-.499.5v63.507a.5.5 0 00.499.5h95.016zm-90.82-5.342a2.496 2.496 0 01-2.492-2.499V7.325a2.495 2.495 0 012.492-2.498h86.614a2.496 2.496 0 012.492 2.499V58.66a2.496 2.496 0 01-2.492 2.499l-86.614.005zm87.102-2.499V7.325a.499.499 0 00-.498-.499H6.698a.5.5 0 00-.498.5V58.66a.5.5 0 00.498.5h86.604a.5.5 0 00.498-.5l-.01.005zM65.43 76v-1.999h3.812V76h-3.813zm-30.256-1.999V76h-4.416v-1.999h4.416zm30.255-7.495v1.998H35.174v-1.998h30.255zm-1.993 1.998h1.993v5.497h-1.993v-5.497zm0 5.497h1.993V76H35.174v-1.999h28.262zm-26.269 0h-1.993v-5.497h1.993v5.497zM100 2.5v63.507a2.495 2.495 0 01-2.492 2.498H65.43v-1.998h32.084a.5.5 0 00.499-.5V2.499a.5.5 0 00-.499-.5H2.492a.5.5 0 00-.499.5v63.507a.5.5 0 00.499.5h32.682v1.998H2.492A2.495 2.495 0 010 66.006V2.499A2.496 2.496 0 012.492 0h95.016A2.496 2.496 0 01100 2.499z"/>
    <g filter="url(#a)">
      <g fill="#FFF" fill-rule="nonzero">
        <path d="M49.05 19C41.303 19 35 25.303 35 33.052c0 7.748 6.303 14.05 14.05 14.05 7.748 0 14.05-6.302 14.05-14.05C63.1 25.302 56.797 19 49.05 19zm0 25.113c-6.108 0-11.062-4.953-11.062-11.06 0-6.111 4.954-11.063 11.063-11.063 6.108 0 11.061 4.952 11.061 11.062 0 6.108-4.953 11.06-11.061 11.06z"/>
        <path d="M46.219 28.443c-.249-.25-.885-.25-.885 0v10.154c0 .25.638.25.887 0l8.334-4.625a.638.638 0 00.005-.903l-8.34-4.626z"/>
      </g>
    </g>
  </g>
</svg>
