<svg xmlns="http://www.w3.org/2000/svg" width="91" height="77">
  <g fill="#FFF" fill-rule="nonzero">
    <path d="M25.891 42.25L11.023 53.67c.441.046.666.1.9.1h13.635c1.962 0 2.196.207 2.808 2.016.612 1.809 1.386 3.735 2.079 5.607.3.76.562 1.535.783 2.322a1.017 1.017 0 001.179.837H56.851c1.674 0 1.665 0 2.214-1.548.972-2.745 1.935-5.5 2.934-8.235a1.62 1.62 0 011.71-1.008h15.039l.081-.225-14.67-11.26a8.1 8.1 0 01.999-.143h6.984a3.033 3.033 0 011.512.53c4.653 3.106 9.288 6.175 13.842 9.379a5.688 5.688 0 012.439 5.679c-.342 2.502-.783 5.004-1.233 7.488-.45 2.484-.855 4.887-1.476 7.28a4.878 4.878 0 01-3.159 3.259 8.532 8.532 0 01-2.97.603c-24.06.03-48.123.03-72.189 0a6.21 6.21 0 01-5.994-3.52 6.012 6.012 0 01-.468-1.655c-.423-2.394-.801-4.815-1.233-7.227C.844 61.869.34 59.782.07 57.703a5.769 5.769 0 012.529-5.715c3.087-2.178 6.3-4.23 9.405-6.3 1.575-1.062 3.132-2.142 4.725-3.177.32-.206.69-.32 1.071-.333h7.155c.313.008.625.032.936.072z"/>
    <path d="M68.227 21.586c-.495 0-.837.072-1.179.072H54.664c-.9 0-1.053.288-1.053 1.08v20.87c0 1.17 0 1.18-1.134 1.18H37.519c-1.116 0-1.125 0-1.125-1.107V22.9c0-1.206 0-1.206-1.224-1.206H22.948c-.324 0-.648 0-1.179-.054.324-.333.504-.54.702-.73L40.156 4.298c1.395-1.305 2.799-2.583 4.158-3.915a.828.828 0 011.395 0c4.092 3.876 8.196 7.737 12.312 11.583l9.9 9.279c.063.054.117.135.306.342z"/>
  </g>
</svg>
